<svg xmlns="http://www.w3.org/2000/svg" viewBox="0 0 960 570" width="960" height="570" role="img" aria-label="Run #1286 · Northwind Foods">
<title>Run #1286 · Northwind Foods</title>
<style>
svg{
 --bg:#ffffff;--app:#fafbfc;--panel:#f4f6f8;--line:#dde2e8;--line2:#c4ccd5;
 --text:#171b21;--muted:#4f5967;--primary:#2a45cc;--soft:#eef3ff;--sidebar:#0d1014;
 --ok:#15803d;--okbg:#dcfce7;--warn:#b45309;--warnbg:#fef3c7;--bad:#b91c1c;--badbg:#fee2e2;
 --info:#0369a1;--infobg:#e0f2fe;--otp:#7c3aed;--otpbg:#ede9fe;--dim:#97a2af;--dash:#c4ccd5;
}
@media (prefers-color-scheme: dark){svg{
 --bg:#171b21;--app:#0d1014;--panel:#262c35;--line:#262c35;--line2:#3a424e;
 --text:#f4f6f8;--muted:#97a2af;--primary:#3d5ce8;--soft:#1d2c69;--sidebar:#080a0d;
 --ok:#4ade80;--okbg:#052e16;--warn:#fbbf24;--warnbg:#451a03;--bad:#f87171;--badbg:#450a0a;
 --info:#38bdf8;--infobg:#082f49;--otp:#a78bfa;--otpbg:#2e1065;--dim:#97a2af;--dash:#3a424e;
}}
text{font-family:Inter,ui-sans-serif,system-ui,"Segoe UI",Roboto,sans-serif;font-size:14px;fill:var(--text)}
.sm{font-size:12.5px;fill:var(--muted)}
.sms{font-size:12.5px;fill:var(--text)}
.h1{font-size:22px;font-weight:600}
.h2{font-size:17px;font-weight:600}
.b{font-weight:500}
.bb{font-weight:600}
.mono{font-family:"JetBrains Mono",ui-monospace,SFMono-Regular,monospace;font-size:12.5px}
.card{fill:var(--bg);stroke:var(--line);stroke-width:1}
.sub{fill:var(--panel);stroke:var(--line);stroke-width:1}
.soft{fill:var(--soft);stroke:none}
.arw{stroke:var(--line2);fill:none;stroke-width:1.5}
.sep{stroke:var(--line);stroke-width:1}
</style>
<defs><marker id="a" viewBox="0 0 10 10" refX="9" refY="5" markerWidth="7"
 markerHeight="7" orient="auto-start-reverse"><path d="M0 0 L10 5 L0 10 z" fill="var(--line2)"/></marker></defs>
<rect width="960" height="570" fill="var(--app)"/>
<g transform="translate(906,4)"><rect x="0" y="0" width="50" height="20" rx="10" fill="var(--okbg)"/><text x="9" y="14.5" class="sm" text-anchor="start" style="fill:var(--ok)">Built</text></g><rect x="0" y="30" width="960" height="540" rx="12" class="card" /><rect x="0" y="30" width="152" height="540" rx="12" fill="var(--sidebar)"/><rect x="138" y="30" width="14" height="540" rx="0" fill="var(--sidebar)"/><text x="20" y="64" class="bb" text-anchor="start" style="fill:#ffffff">UniQCAI</text><text x="20" y="80" class="sm" text-anchor="start" style="fill:#97a2af">by Digital Upshot</text><text x="22" y="124" class="" text-anchor="start" style="fill:#97a2af">Overview</text><text x="22" y="156" class="" text-anchor="start" style="fill:#97a2af">Brands</text><rect x="8" y="170" width="130" height="28" rx="6" fill="#262c35"/><rect x="8" y="170" width="3" height="28" rx="2" fill="#3d5ce8"/><text x="22" y="188" class="b" text-anchor="start" style="fill:#ffffff">Runs</text><text x="22" y="220" class="" text-anchor="start" style="fill:#97a2af">Schedules</text><text x="22" y="252" class="" text-anchor="start" style="fill:#97a2af">Report library</text><text x="20" y="280" class="sm" text-anchor="start" style="fill:#6b7684">Setup</text><text x="22" y="310" class="" text-anchor="start" style="fill:#97a2af">Platform accounts</text><text x="22" y="342" class="" text-anchor="start" style="fill:#97a2af">Mailboxes</text><text x="22" y="374" class="" text-anchor="start" style="fill:#97a2af">Users &amp; access</text><text x="22" y="406" class="" text-anchor="start" style="fill:#97a2af">Settings</text><text x="22" y="438" class="" text-anchor="start" style="fill:#97a2af">Audit log</text><text x="176" y="68" class="h1" text-anchor="start">Run #1286 · Northwind Foods</text><line x1="152" y1="102" x2="960" y2="102" class="sep" /><text x="176" y="146" class="sm" text-anchor="start">Manual, started by you · 14–20 Sep 2026</text><rect x="176" y="160" width="63" height="20" rx="10" fill="var(--infobg)"/><text x="185" y="174.5" class="sm" text-anchor="start" style="fill:var(--info)">Running</text><rect x="266" y="166" width="300" height="8" rx="4" fill="var(--panel)"/><rect x="266" y="166" width="188" height="8" rx="4" fill="var(--primary)"/><text x="578" y="174" class="sm" text-anchor="start">5 of 8 reports</text><rect x="852" y="158" width="84" height="28" rx="8" class="card" /><text x="894.0" y="176" class="sm b" text-anchor="middle">Cancel</text><rect x="176" y="200" width="760" height="132" rx="8" class="card" /><rect x="192" y="212" width="100" height="22" rx="11" fill="var(--panel)"/><circle cx="203" cy="223" r="4" fill="#5b21b6"/><text x="213" y="227" class="sm" text-anchor="start" style="fill:var(--text)">Zepto · Ads</text><path d="M306 223 l2.6 2.8 L314.5 219" fill="none" stroke="var(--ok)" stroke-width="1.8" stroke-linecap="round" stroke-linejoin="round"/><text x="324" y="227" class="sm" text-anchor="start" style="fill:var(--ok)">done</text><text x="920" y="227" class="mono" text-anchor="end">2:41</text><path d="M206 248 l2.6 2.8 L214.5 244" fill="none" stroke="var(--ok)" stroke-width="1.8" stroke-linecap="round" stroke-linejoin="round"/><text x="226" y="252" class="sm" text-anchor="start" style="fill:var(--text)">Signed in — session reused, no code needed</text><path d="M206 270 l2.6 2.8 L214.5 266" fill="none" stroke="var(--ok)" stroke-width="1.8" stroke-linecap="round" stroke-linejoin="round"/><text x="226" y="274" class="sm" text-anchor="start" style="fill:var(--text)">Business confirmed: Northwind Foods</text><path d="M206 292 l2.6 2.8 L214.5 288" fill="none" stroke="var(--ok)" stroke-width="1.8" stroke-linecap="round" stroke-linejoin="round"/><text x="226" y="296" class="sm" text-anchor="start" style="fill:var(--text)">Sponsored Products — Campaign</text><text x="884" y="296" class="sm" text-anchor="end">24 KB</text><text x="914" y="296" class="sm b" text-anchor="end" style="fill:var(--primary)">↓</text><path d="M206 314 l2.6 2.8 L214.5 310" fill="none" stroke="var(--ok)" stroke-width="1.8" stroke-linecap="round" stroke-linejoin="round"/><text x="226" y="318" class="sm" text-anchor="start" style="fill:var(--text)">Sponsored Products — Keyword</text><rect x="596" y="304" width="115" height="20" rx="10" fill="var(--warnbg)"/><text x="605" y="318.5" class="sm" text-anchor="start" style="fill:var(--warn)">Columns changed</text><text x="884" y="318" class="sm" text-anchor="end">310 KB</text><text x="914" y="318" class="sm b" text-anchor="end" style="fill:var(--primary)">↓</text><rect x="176" y="344" width="760" height="110" rx="8" class="card" /><rect x="192" y="356" width="113" height="22" rx="11" fill="var(--panel)"/><circle cx="203" cy="367" r="4" fill="#f5c518"/><text x="213" y="371" class="sm" text-anchor="start" style="fill:var(--text)">Blinkit · Ads</text><path d="M328 367 a5 5 0 1 1 -3.5 1.5" fill="none" stroke="var(--info)" stroke-width="1.8" stroke-linecap="round"/><text x="337" y="371" class="sm" text-anchor="start" style="fill:var(--info)">running</text><text x="920" y="371" class="mono" text-anchor="end">1:05</text><path d="M206 392 l2.6 2.8 L214.5 388" fill="none" stroke="var(--ok)" stroke-width="1.8" stroke-linecap="round" stroke-linejoin="round"/><text x="226" y="396" class="sm" text-anchor="start" style="fill:var(--text)">Signed in with a code from reports-inbox (0:26)</text><path d="M215 414 a5 5 0 1 1 -3.5 1.5" fill="none" stroke="var(--info)" stroke-width="1.8" stroke-linecap="round"/><text x="226" y="418" class="sm" text-anchor="start" style="fill:var(--text)">MTD search report</text><text x="884" y="418" class="sm" text-anchor="end">downloading…</text><circle cx="210" cy="436" r="4.5" fill="none" stroke="var(--dim)" stroke-width="1.5"/><text x="226" y="440" class="sm" text-anchor="start" style="fill:var(--muted)">Dashboard export</text><rect x="176" y="466" width="760" height="66" rx="8" class="card" /><rect x="192" y="478" width="126" height="22" rx="11" fill="var(--panel)"/><circle cx="203" cy="489" r="4" fill="#f5c518"/><text x="213" y="493" class="sm" text-anchor="start" style="fill:var(--text)">Blinkit · Sales</text><circle cx="336" cy="489" r="4.5" fill="none" stroke="var(--dim)" stroke-width="1.5"/><text x="350" y="493" class="sm" text-anchor="start" style="fill:var(--muted)">queued</text><circle cx="210" cy="514" r="4.5" fill="none" stroke="var(--dim)" stroke-width="1.5"/><text x="226" y="518" class="sm" text-anchor="start" style="fill:var(--muted)">Same login — waits for Ads to finish</text><text x="176" y="560" class="sm" text-anchor="start">The page updates itself. Nothing here needs refreshing.</text>
</svg>
