<svg xmlns="http://www.w3.org/2000/svg" viewBox="0 0 960 550" width="960" height="550" role="img" aria-label="Northwind Foods">
<title>Northwind Foods</title>
<style>
svg{
 --bg:#ffffff;--app:#fafbfc;--panel:#f4f6f8;--line:#dde2e8;--line2:#c4ccd5;
 --text:#171b21;--muted:#4f5967;--primary:#2a45cc;--soft:#eef3ff;--sidebar:#0d1014;
 --ok:#15803d;--okbg:#dcfce7;--warn:#b45309;--warnbg:#fef3c7;--bad:#b91c1c;--badbg:#fee2e2;
 --info:#0369a1;--infobg:#e0f2fe;--otp:#7c3aed;--otpbg:#ede9fe;--dim:#97a2af;--dash:#c4ccd5;
}
@media (prefers-color-scheme: dark){svg{
 --bg:#171b21;--app:#0d1014;--panel:#262c35;--line:#262c35;--line2:#3a424e;
 --text:#f4f6f8;--muted:#97a2af;--primary:#3d5ce8;--soft:#1d2c69;--sidebar:#080a0d;
 --ok:#4ade80;--okbg:#052e16;--warn:#fbbf24;--warnbg:#451a03;--bad:#f87171;--badbg:#450a0a;
 --info:#38bdf8;--infobg:#082f49;--otp:#a78bfa;--otpbg:#2e1065;--dim:#97a2af;--dash:#3a424e;
}}
text{font-family:Inter,ui-sans-serif,system-ui,"Segoe UI",Roboto,sans-serif;font-size:14px;fill:var(--text)}
.sm{font-size:12.5px;fill:var(--muted)}
.sms{font-size:12.5px;fill:var(--text)}
.h1{font-size:22px;font-weight:600}
.h2{font-size:17px;font-weight:600}
.b{font-weight:500}
.bb{font-weight:600}
.mono{font-family:"JetBrains Mono",ui-monospace,SFMono-Regular,monospace;font-size:12.5px}
.card{fill:var(--bg);stroke:var(--line);stroke-width:1}
.sub{fill:var(--panel);stroke:var(--line);stroke-width:1}
.soft{fill:var(--soft);stroke:none}
.arw{stroke:var(--line2);fill:none;stroke-width:1.5}
.sep{stroke:var(--line);stroke-width:1}
</style>
<defs><marker id="a" viewBox="0 0 10 10" refX="9" refY="5" markerWidth="7"
 markerHeight="7" orient="auto-start-reverse"><path d="M0 0 L10 5 L0 10 z" fill="var(--line2)"/></marker></defs>
<rect width="960" height="550" fill="var(--app)"/>
<g transform="translate(906,4)"><rect x="0" y="0" width="50" height="20" rx="10" fill="var(--okbg)"/><text x="9" y="14.5" class="sm" text-anchor="start" style="fill:var(--ok)">Built</text></g><rect x="0" y="30" width="960" height="520" rx="12" class="card" /><rect x="0" y="30" width="152" height="520" rx="12" fill="var(--sidebar)"/><rect x="138" y="30" width="14" height="520" rx="0" fill="var(--sidebar)"/><text x="20" y="64" class="bb" text-anchor="start" style="fill:#ffffff">UniQCAI</text><text x="20" y="80" class="sm" text-anchor="start" style="fill:#97a2af">by Digital Upshot</text><text x="22" y="124" class="" text-anchor="start" style="fill:#97a2af">Overview</text><rect x="8" y="138" width="130" height="28" rx="6" fill="#262c35"/><rect x="8" y="138" width="3" height="28" rx="2" fill="#3d5ce8"/><text x="22" y="156" class="b" text-anchor="start" style="fill:#ffffff">Brands</text><text x="22" y="188" class="" text-anchor="start" style="fill:#97a2af">Runs</text><text x="22" y="220" class="" text-anchor="start" style="fill:#97a2af">Schedules</text><text x="22" y="252" class="" text-anchor="start" style="fill:#97a2af">Report library</text><text x="20" y="280" class="sm" text-anchor="start" style="fill:#6b7684">Setup</text><text x="22" y="310" class="" text-anchor="start" style="fill:#97a2af">Platform accounts</text><text x="22" y="342" class="" text-anchor="start" style="fill:#97a2af">Mailboxes</text><text x="22" y="374" class="" text-anchor="start" style="fill:#97a2af">Users &amp; access</text><text x="22" y="406" class="" text-anchor="start" style="fill:#97a2af">Settings</text><text x="22" y="438" class="" text-anchor="start" style="fill:#97a2af">Audit log</text><text x="176" y="68" class="h1" text-anchor="start">Northwind Foods</text><rect x="863" y="50" width="73" height="30" rx="8" fill="var(--primary)"/><text x="899.5" y="70" class="b" text-anchor="middle" style="fill:#ffffff">Run now</text><line x1="152" y1="102" x2="960" y2="102" class="sep" /><text x="187" y="134" class="b" text-anchor="start">Connections</text><rect x="176" y="142" width="99" height="2" rx="1" fill="var(--primary)"/><text x="286" y="134" class="" text-anchor="start" style="fill:var(--muted)">Schedules</text><text x="371" y="134" class="" text-anchor="start" style="fill:var(--muted)">Reports</text><text x="442" y="134" class="" text-anchor="start" style="fill:var(--muted)">Runs</text><text x="492" y="134" class="" text-anchor="start" style="fill:var(--muted)">Access</text><line x1="176" y1="143" x2="936" y2="143" class="sep" /><rect x="0" y="30" width="960" height="520" rx="12" fill="#0d1014" opacity="0.42"/><path d="M564 30 h384 v520 h-384 z" fill="var(--bg)" stroke="var(--line)"/><text x="588" y="74" class="h1" text-anchor="start">Run now</text><text x="588" y="94" class="sm" text-anchor="start">Northwind Foods</text><line x1="564" y1="112" x2="960" y2="112" class="sep" /><text x="588" y="138" class="sm b" text-anchor="start">Reports</text><rect x="588" y="152" width="15" height="15" rx="4" class="card" style="fill:var(--primary)"/><path d="M591.5 160 l2.6 2.8 L600.0 156" fill="none" stroke="#ffffff" stroke-width="1.8" stroke-linecap="round" stroke-linejoin="round"/><text x="612" y="164" class="sm" text-anchor="start" style="fill:var(--text)"></text><rect x="610" y="149" width="62" height="22" rx="11" fill="var(--panel)"/><circle cx="621" cy="160" r="4" fill="#5b21b6"/><text x="631" y="164" class="sm" text-anchor="start" style="fill:var(--text)">Zepto</text><rect x="612" y="178" width="15" height="15" rx="4" class="card" style="fill:var(--primary)"/><path d="M615.5 186 l2.6 2.8 L624.0 182" fill="none" stroke="#ffffff" stroke-width="1.8" stroke-linecap="round" stroke-linejoin="round"/><text x="636" y="190" class="sm" text-anchor="start" style="fill:var(--text)">Sponsored Products — Campaign</text><rect x="612" y="202" width="15" height="15" rx="4" class="card" style="fill:var(--primary)"/><path d="M615.5 210 l2.6 2.8 L624.0 206" fill="none" stroke="#ffffff" stroke-width="1.8" stroke-linecap="round" stroke-linejoin="round"/><text x="636" y="214" class="sm" text-anchor="start" style="fill:var(--text)">Sponsored Products — Keyword</text><rect x="612" y="226" width="15" height="15" rx="4" class="card" style="fill:var(--primary)"/><path d="M615.5 234 l2.6 2.8 L624.0 230" fill="none" stroke="#ffffff" stroke-width="1.8" stroke-linecap="round" stroke-linejoin="round"/><text x="636" y="238" class="sm" text-anchor="start" style="fill:var(--text)">Sponsored Brands — Campaign</text><rect x="588" y="254" width="15" height="15" rx="4" class="card" style="fill:var(--primary)"/><path d="M591.5 262 l2.6 2.8 L600.0 258" fill="none" stroke="#ffffff" stroke-width="1.8" stroke-linecap="round" stroke-linejoin="round"/><text x="612" y="266" class="sm" text-anchor="start" style="fill:var(--text)"></text><rect x="610" y="251" width="74" height="22" rx="11" fill="var(--panel)"/><circle cx="621" cy="262" r="4" fill="#f5c518"/><text x="631" y="266" class="sm" text-anchor="start" style="fill:var(--text)">Blinkit</text><rect x="612" y="280" width="15" height="15" rx="4" class="card" style="fill:var(--primary)"/><path d="M615.5 288 l2.6 2.8 L624.0 284" fill="none" stroke="#ffffff" stroke-width="1.8" stroke-linecap="round" stroke-linejoin="round"/><text x="636" y="292" class="sm" text-anchor="start" style="fill:var(--text)">MTD search report</text><rect x="612" y="304" width="15" height="15" rx="4" class="card" style="fill:var(--primary)"/><path d="M615.5 312 l2.6 2.8 L624.0 308" fill="none" stroke="#ffffff" stroke-width="1.8" stroke-linecap="round" stroke-linejoin="round"/><text x="636" y="316" class="sm" text-anchor="start" style="fill:var(--text)">Dashboard export</text><rect x="588" y="332" width="15" height="15" rx="4" class="card" style="fill:var(--bg)"/><text x="612" y="344" class="sm" text-anchor="start" style="fill:var(--text)"></text><rect x="610" y="329" width="132" height="22" rx="11" fill="var(--panel)"/><circle cx="621" cy="340" r="4" fill="#fc8019"/><text x="631" y="344" class="sm" text-anchor="start" style="fill:var(--text)">Swiggy Instamart</text><text x="588" y="370" class="sm b" text-anchor="start">Dates</text><rect x="588" y="380" width="329" height="28" rx="8" class="sub" /><text x="629.0" y="398" class="sm" text-anchor="middle">Yesterday</text><rect x="672" y="382" width="91" height="24" rx="6" fill="var(--bg)"/><text x="717.5" y="398" class="sm b" text-anchor="middle">Last 7 days</text><text x="809.5" y="398" class="sm" text-anchor="middle">This month</text><text x="885.5" y="398" class="sm" text-anchor="middle">Custom</text><text x="588" y="432" class="sm b" text-anchor="start">14 Sep 2026 → 20 Sep 2026</text><text x="764" y="432" class="sm" text-anchor="start">India Standard Time</text><rect x="588" y="448" width="336" height="40" rx="8" fill="var(--warnbg)"/><text x="602" y="473" class="sm" text-anchor="start" style="fill:var(--warn)">Zepto files carry no dates inside them — split by day?</text><rect x="824" y="502" width="112" height="28" rx="8" fill="var(--primary)"/><text x="880.0" y="520" class="sm b" text-anchor="middle" style="fill:#ffffff">Start run</text><rect x="746" y="502" width="70" height="28" rx="8" class="card" /><text x="781.0" y="520" class="sm b" text-anchor="middle">Cancel</text>
</svg>
